<?xml version="1.0" encoding="UTF-8"?>
<!-- Generated by Pixelmator Pro 3.7 -->
<svg width="160" height="160" viewBox="0 0 160 160" xmlns="http://www.w3.org/2000/svg">
    <path id="path1052" fill="#ffffff" stroke="none" d="M 79.092583 52.773346 C 66.500298 52.773346 55.82729 61.310089 52.519371 72.876411 C 49.644444 66.741455 43.414375 62.443405 36.238415 62.443405 C 26.369778 62.443405 18.2575 70.555687 18.2575 80.424324 C 18.2575 90.292946 26.369778 98.408928 36.238415 98.408928 C 43.414375 98.408928 49.644444 94.108253 52.519371 87.972214 C 55.82729 99.539421 66.500298 108.078995 79.092583 108.078995 C 91.591751 108.078995 102.210335 99.668213 105.602867 88.231476 C 108.530899 94.228218 114.683861 98.408928 121.757904 98.408928 C 131.626541 98.408928 139.742508 90.292946 139.742508 80.424324 C 139.742508 70.555687 131.626541 62.443405 121.757904 62.443405 C 114.683861 62.443405 108.530899 66.621498 105.602867 72.617157 C 102.210335 61.18132 91.591751 52.773346 79.092583 52.773346 Z M 79.092583 63.328568 C 88.598351 63.328568 96.192055 70.918594 96.192055 80.424324 C 96.192055 89.930031 88.598351 97.523773 79.092583 97.523773 C 69.586891 97.523773 61.996861 89.930031 61.996861 80.424324 C 61.996861 70.918594 69.586891 63.328568 79.092583 63.328568 Z M 36.238415 72.998627 C 40.403088 72.998627 43.667801 76.259628 43.667801 80.424324 C 43.667801 84.588997 40.403088 87.853706 36.238415 87.853706 C 32.073734 87.853706 28.8127 84.588997 28.8127 80.424324 C 28.8127 76.259628 32.073734 72.998627 36.238415 72.998627 Z M 121.757904 72.998627 C 125.922615 72.998627 129.187302 76.259628 129.187302 80.424324 C 129.187302 84.588997 125.922592 87.853706 121.757904 87.853706 C 117.593246 87.853706 114.332207 84.588997 114.332207 80.424324 C 114.332207 76.259628 117.593262 72.998627 121.757904 72.998627 Z"/>
</svg>
