<?xml version="1.0" encoding="UTF-8"?>
<svg id="Layer_1" xmlns="http://www.w3.org/2000/svg" xmlns:svg="http://www.w3.org/2000/svg" xmlns:sodipodi="http://sodipodi.sourceforge.net/DTD/sodipodi-0.dtd" xmlns:rdf="http://www.w3.org/1999/02/22-rdf-syntax-ns#" xmlns:inkscape="http://www.inkscape.org/namespaces/inkscape" xmlns:dc="http://purl.org/dc/elements/1.1/" xmlns:cc="http://creativecommons.org/ns#" version="1.1" viewBox="0 0 127.6 62.9">
  <!-- Generator: Adobe Illustrator 29.8.1, SVG Export Plug-In . SVG Version: 2.1.1 Build 2)  -->
  <defs>
    <style>
      .st0 {
        fill: #fff;
      }
    </style>
  </defs>
  <path id="path1052" class="st0" d="M63.8,3.8c-12.6,0-23.3,8.5-26.6,20.1-2.8-6.1-9-10.4-16.2-10.4C11.1,13.5,3,21.6,3,31.5s8.1,18,18,18c7.2,0,13.4-4.3,16.3-10.4,3.3,11.6,14,20.1,26.6,20.1,12.5,0,23.1-8.4,26.5-19.8,2.9,6,9.1,10.2,16.2,10.2,9.9,0,18-8.1,18-18s-8.1-18-18-18c-7.1,0-13.2,4.2-16.2,10.2-3.4-11.6-14.1-20-26.6-20ZM63.8,14.4c9.5,0,17.1,7.6,17.1,17.1s-7.6,17.1-17.1,17.1-17.1-7.6-17.1-17.1c0-9.6,7.6-17.1,17.1-17.1ZM21,24c4.2,0,7.4,3.3,7.4,7.4,0,4.2-3.3,7.4-7.4,7.4-4.2,0-7.4-3.3-7.4-7.4s3.2-7.4,7.4-7.4ZM106.5,24c4.2,0,7.4,3.3,7.4,7.4,0,4.2-3.3,7.4-7.4,7.4-4.2,0-7.4-3.3-7.4-7.4s3.2-7.4,7.4-7.4Z" inkscape:connector-curvature="0" inkscape:export-filename="Nextcloud Hub logo variants.png" inkscape:export-xdpi="300" inkscape:export-ydpi="300"/>
</svg>